<?xml version="1.0" standalone="no"?>
<!DOCTYPE svg PUBLIC "-//W3C//DTD SVG 20010904//EN"
 "http://www.w3.org/TR/2001/REC-SVG-20010904/DTD/svg10.dtd">
<svg version="1.0" xmlns="http://www.w3.org/2000/svg"
 width="1024.000000pt" height="1024.000000pt" viewBox="0 0 1024.000000 1024.000000"
 preserveAspectRatio="xMidYMid meet">
<metadata>
Created by potrace 1.14, written by Peter Selinger 2001-2017
</metadata>
<g transform="translate(0.000000,1024.000000) scale(0.100000,-0.100000)"
fill="#000000" stroke="none">
<path d="M3399 9365 c-2 -1 -42 -6 -88 -9 -117 -10 -133 -21 -161 -115 -12
-42 -26 -87 -31 -101 -11 -33 -36 -153 -55 -260 -7 -47 -19 -110 -25 -140 -11
-58 -12 -69 -24 -165 -4 -33 -9 -69 -11 -80 -3 -11 -7 -36 -9 -55 -3 -19 -7
-44 -10 -55 -2 -11 -7 -54 -11 -95 -3 -41 -8 -78 -10 -82 -3 -4 0 -9 6 -13 6
-4 8 -10 5 -15 -10 -16 -13 -120 -3 -126 5 -3 4 -11 -3 -20 -9 -11 -8 -14 2
-14 11 0 11 -2 -1 -10 -8 -5 -11 -10 -6 -10 5 0 2 -8 -5 -17 -8 -9 -9 -14 -3
-10 14 8 14 -180 0 -202 -6 -10 -3 -18 9 -28 11 -7 15 -13 9 -13 -12 0 -12
-60 0 -79 6 -10 6 -12 -2 -7 -7 4 -12 1 -12 -9 0 -10 5 -14 13 -9 9 5 9 4 0
-6 -6 -7 -9 -19 -6 -28 5 -11 3 -13 -8 -7 -12 8 -12 6 0 -8 7 -9 10 -17 6 -17
-4 0 -2 -6 4 -14 8 -10 9 -16 1 -21 -6 -3 -7 -11 -4 -17 4 -6 0 -14 -7 -19 -9
-6 -10 -9 -2 -9 7 0 10 -10 8 -22 -3 -13 -7 -48 -9 -78 -8 -84 -17 -144 -24
-152 -4 -3 -45 -18 -92 -33 -47 -15 -119 -39 -160 -54 -76 -29 -92 -34 -215
-69 -38 -12 -146 -44 -240 -72 -280 -83 -298 -88 -345 -100 -25 -6 -72 -20
-105 -32 -33 -11 -64 -21 -70 -22 -5 -2 -35 -10 -66 -20 -31 -9 -67 -19 -80
-21 -13 -3 -58 -16 -99 -29 -41 -14 -118 -36 -170 -50 -244 -64 -331 -89 -405
-118 -126 -48 -140 -53 -147 -54 -5 -1 -10 -3 -13 -4 -3 -1 -8 -3 -12 -4 -30
-5 -284 -158 -370 -222 -33 -25 -40 -34 -30 -44 9 -10 9 -11 0 -6 -10 5 -11
-1 -6 -25 6 -32 34 -64 94 -110 18 -13 43 -34 56 -47 13 -13 23 -20 23 -17 0
3 10 -4 23 -15 12 -12 34 -28 50 -36 15 -8 27 -19 27 -24 0 -6 6 -10 13 -10 7
0 23 -9 35 -20 12 -11 25 -20 29 -20 4 0 23 -13 40 -28 18 -15 58 -45 89 -67
31 -22 67 -50 81 -62 13 -13 25 -22 26 -20 7 5 65 -51 60 -57 -4 -3 3 -6 15
-6 11 0 22 -4 24 -8 2 -4 38 -34 80 -66 43 -31 77 -62 75 -68 -1 -6 5 -13 13
-15 13 -4 13 -3 0 6 -8 6 -10 11 -5 11 12 -1 55 -36 55 -46 0 -4 -31 -48 -69
-98 -37 -50 -94 -129 -126 -176 -50 -73 -148 -205 -165 -220 -3 -3 -30 -39
-60 -80 -29 -41 -104 -142 -166 -225 -224 -300 -313 -453 -320 -548 -5 -68 2
-100 29 -130 26 -30 156 -111 247 -154 186 -89 481 -231 857 -414 89 -44 168
-85 176 -93 11 -11 14 -80 16 -357 4 -626 5 -698 14 -692 5 3 5 -3 0 -13 -11
-23 -11 -54 1 -73 6 -9 5 -12 -2 -7 -7 4 -10 -1 -9 -14 1 -11 5 -20 10 -20 4
0 5 -6 0 -12 -13 -21 -13 -42 0 -50 9 -6 9 -8 0 -8 -12 0 -12 -24 0 -36 3 -4
1 -16 -5 -28 -14 -25 -13 -26 4 -37 10 -7 10 -9 0 -9 -10 0 -10 -5 -1 -21 8
-15 8 -19 0 -15 -6 4 -11 3 -11 -3 0 -5 5 -13 10 -16 8 -5 7 -12 -2 -23 -11
-13 -11 -14 1 -7 10 6 12 4 6 -6 -14 -21 -13 -49 1 -49 7 0 14 -3 16 -7 3 -8
131 -73 143 -73 3 0 68 -30 143 -66 323 -155 1037 -473 1122 -499 14 -4 49
-18 78 -31 29 -13 55 -24 58 -24 14 0 307 -126 385 -165 85 -43 237 -108 399
-170 47 -18 110 -44 140 -57 30 -14 84 -39 120 -56 105 -48 172 -74 385 -150
148 -53 179 -66 186 -74 13 -18 130 -30 234 -24 223 12 257 18 349 51 96 35
346 145 368 162 7 5 51 25 98 43 47 18 91 38 98 43 6 5 12 7 12 3 0 -4 12 0
28 8 15 7 90 39 167 71 77 31 144 61 150 66 5 5 15 9 22 9 7 0 32 9 56 19 23
10 107 45 187 76 168 67 421 170 465 190 34 15 55 24 210 90 61 25 135 58 165
72 76 35 279 113 295 113 12 0 85 31 220 94 39 18 81 37 95 41 25 7 308 124
367 151 17 8 34 14 37 14 3 0 25 8 49 19 23 10 72 31 110 46 l67 27 1 422 c0
578 12 1200 24 1235 3 10 32 30 64 45 81 36 544 220 622 247 87 30 309 120
392 158 62 30 73 40 67 66 -1 6 -4 64 -6 130 -7 208 -5 199 -65 267 -30 34
-59 66 -65 72 -6 6 -19 25 -29 41 -18 28 -113 153 -125 165 -3 3 -17 21 -31
40 -15 19 -45 55 -68 79 -22 24 -62 73 -88 110 -26 36 -55 75 -64 86 -22 25
-109 141 -131 175 -9 14 -25 35 -37 47 -12 12 -21 25 -21 28 0 9 -80 126 -102
149 -10 11 -18 25 -17 30 0 13 76 75 204 166 49 35 95 68 100 72 43 33 106 78
110 78 6 0 122 88 146 110 26 25 59 50 64 50 6 0 107 71 115 80 3 4 12 9 20
12 57 23 198 167 184 189 -3 5 -1 9 5 9 6 0 6 11 1 30 -10 35 -10 35 -10 55 0
34 -232 164 -386 216 -54 18 -104 34 -110 35 -6 1 -27 8 -45 16 -128 56 -193
81 -205 81 -8 0 -14 4 -14 8 0 3 -12 9 -27 12 -16 3 -113 34 -218 70 -104 35
-251 83 -325 106 -74 24 -187 61 -250 82 -101 35 -330 101 -400 115 -27 6 -65
17 -297 90 -139 43 -155 51 -201 94 -28 27 -53 46 -55 44 -10 -10 -12 129 -2
146 6 10 4 12 -11 6 -15 -6 -17 -5 -6 5 16 17 16 89 0 89 -6 0 -3 7 8 15 10 8
15 15 9 15 -6 0 -10 72 -11 193 -1 177 -7 321 -19 487 -6 71 -12 202 -19 376
-6 129 -16 255 -23 267 -3 5 -7 23 -9 40 -3 18 -13 57 -23 87 -10 30 -23 74
-30 97 -11 40 -64 126 -99 161 -48 48 -70 54 -166 48 -76 -4 -110 -12 -197
-46 -117 -46 -359 -164 -388 -189 -10 -9 -43 -36 -72 -61 -30 -25 -85 -75
-124 -111 -38 -37 -99 -91 -135 -122 -36 -30 -104 -96 -152 -145 -83 -84 -90
-89 -125 -86 -21 2 -40 4 -43 5 -3 1 -9 1 -14 0 -4 -1 -15 4 -24 11 -13 11
-14 11 -7 -1 6 -11 2 -13 -19 -7 -20 5 -26 3 -21 -5 6 -8 2 -8 -12 0 -14 7
-24 7 -33 -2 -10 -9 -11 -9 -6 1 5 7 1 12 -9 12 -9 0 -14 -4 -10 -9 3 -5 0
-13 -6 -17 -8 -4 -9 -3 -5 4 4 6 -4 16 -16 23 -20 10 -21 10 -11 -2 9 -12 4
-14 -32 -14 -30 0 -41 4 -38 13 4 8 0 10 -11 6 -9 -3 -13 -11 -10 -16 4 -6 -3
-5 -15 1 -16 9 -21 9 -21 -1 0 -8 -5 -6 -11 5 -8 13 -14 15 -30 7 -11 -6 -25
-8 -31 -4 -8 5 -9 1 -5 -12 5 -15 4 -15 -9 3 -13 18 -20 21 -35 12 -11 -5 -25
-7 -31 -3 -8 5 -9 1 -5 -12 5 -15 4 -15 -9 3 -13 18 -20 21 -35 12 -11 -5 -25
-7 -31 -3 -8 5 -9 1 -5 -12 5 -15 4 -15 -9 3 -13 18 -20 21 -36 12 -14 -7 -23
-7 -34 2 -17 14 -19 -2 -1 -20 6 -8 -1 -5 -16 4 -24 16 -32 16 -49 6 -16 -10
-18 -10 -12 0 5 9 2 10 -11 6 -9 -4 -25 -2 -33 5 -13 11 -14 11 -7 -1 6 -11 2
-13 -19 -7 -20 5 -26 3 -21 -5 6 -8 2 -8 -12 0 -14 7 -24 7 -33 -2 -10 -9 -11
-9 -6 1 5 7 1 12 -9 12 -10 0 -13 -5 -9 -12 5 -7 3 -8 -6 -3 -13 8 -48 8 -227
0 l-92 -4 -49 37 c-54 40 -216 188 -321 292 -37 36 -80 76 -96 90 -17 14 -57
48 -90 75 -33 28 -62 52 -65 55 -29 32 -255 165 -325 193 -92 37 -182 56 -170
37 4 -7 -2 -7 -18 -1 -14 6 -27 8 -28 6z"/>
</g>
</svg>
